<?xml version="1.0" encoding="iso-8859-1"?>
<!-- Generator: Adobe Illustrator 19.0.0, SVG Export Plug-In . SVG Version: 6.00 Build 0)  -->
<svg version="1.1" id="Capa_1" xmlns="http://www.w3.org/2000/svg" xmlns:xlink="http://www.w3.org/1999/xlink" x="0px" y="0px"
	 viewBox="0 0 380 380" style="enable-background:new 0 0 380 380;" xml:space="preserve">
<path id="XMLID_25_" d="M380,132.083c0-22.056-17.944-40-40-40s-40,17.944-40,40c0,5.901,1.294,11.501,3.598,16.548
	c-8.378,5.022-18.022,7.738-27.883,7.738c-27,0-49.628-19.806-53.642-45.965C233.022,101.224,240,87.455,240,72.083
	c0-27.57-22.43-50-50-50s-50,22.43-50,50c0,15.372,6.978,29.141,17.927,38.32c-4.014,26.16-26.642,45.965-53.642,45.965
	c-9.861,0-19.505-2.715-27.883-7.738C78.705,143.584,80,137.984,80,132.083c0-22.056-17.944-40-40-40s-40,17.944-40,40
	c0,18.859,13.123,34.7,30.713,38.9L59.176,270.6c0.331,1.159,0.798,2.253,1.366,3.278C60.2,275.17,60,276.519,60,277.917v64.166
	c0,8.731,7.104,15.834,15.834,15.834h228.332c8.73,0,15.834-7.103,15.834-15.834v-64.166c0-1.398-0.2-2.747-0.542-4.039
	c0.568-1.026,1.035-2.12,1.366-3.279l28.463-99.616C366.877,166.783,380,150.942,380,132.083z M190,42.083c16.542,0,30,13.458,30,30
	c0,10.704-5.639,20.11-14.097,25.421c-0.492,0.309-0.99,0.607-1.497,0.886c-0.048,0.027-0.096,0.055-0.144,0.081
	c-0.542,0.294-1.094,0.565-1.652,0.824c-0.152,0.071-0.305,0.139-0.458,0.207c-0.521,0.231-1.046,0.451-1.578,0.651
	c-0.061,0.023-0.12,0.049-0.181,0.072c-0.599,0.222-1.207,0.421-1.819,0.603c-0.131,0.039-0.264,0.075-0.397,0.113
	c-0.529,0.15-1.061,0.286-1.598,0.406c-0.105,0.024-0.21,0.051-0.316,0.073c-0.629,0.134-1.263,0.248-1.901,0.342
	c-0.112,0.016-0.226,0.028-0.339,0.043c-0.528,0.071-1.059,0.127-1.592,0.171c-0.167,0.013-0.334,0.028-0.503,0.038
	c-0.64,0.041-1.282,0.069-1.927,0.069s-1.287-0.028-1.927-0.069c-0.168-0.011-0.335-0.025-0.503-0.038
	c-0.533-0.043-1.064-0.099-1.592-0.171c-0.113-0.015-0.227-0.027-0.339-0.043c-0.638-0.094-1.272-0.208-1.901-0.342
	c-0.106-0.023-0.21-0.049-0.316-0.073c-0.537-0.121-1.069-0.256-1.598-0.406c-0.132-0.037-0.265-0.074-0.397-0.113
	c-0.612-0.183-1.22-0.381-1.819-0.603c-0.061-0.023-0.12-0.049-0.181-0.072c-0.532-0.201-1.057-0.42-1.578-0.651
	c-0.153-0.068-0.306-0.137-0.458-0.207c-0.557-0.259-1.109-0.53-1.652-0.824c-0.049-0.026-0.096-0.055-0.144-0.081
	c-0.507-0.279-1.005-0.577-1.497-0.886C165.639,92.193,160,82.787,160,72.083C160,55.541,173.458,42.083,190,42.083z M40,112.083
	c11.028,0,20,8.972,20,20c0,5.501-2.233,10.489-5.839,14.108c-0.016,0.016-0.031,0.031-0.046,0.047
	c-0.443,0.441-0.905,0.862-1.387,1.261c-0.01,0.009-0.021,0.017-0.032,0.026c-1.447,1.192-3.066,2.181-4.81,2.932
	c-0.061,0.026-0.122,0.054-0.183,0.08c-0.529,0.222-1.071,0.419-1.623,0.595c-0.095,0.03-0.19,0.06-0.285,0.089
	c-0.542,0.164-1.093,0.308-1.654,0.426c-0.096,0.02-0.194,0.038-0.29,0.057c-0.575,0.113-1.156,0.205-1.747,0.267
	c-0.065,0.007-0.131,0.01-0.196,0.016c-0.628,0.06-1.264,0.097-1.907,0.097c-11.028,0-20-8.972-20-20S28.972,112.083,40,112.083z
	 M300,337.917H80v-55.834h220V337.917z M302.457,262.083H77.543l-26.184-91.641c0.116-0.034,0.23-0.075,0.346-0.11
	c0.165-0.051,0.329-0.105,0.494-0.158c0.455-0.146,0.907-0.298,1.356-0.46c0.129-0.047,0.257-0.094,0.385-0.142
	c0.502-0.187,1.001-0.384,1.495-0.591c0.067-0.028,0.135-0.056,0.202-0.085c2.855-1.213,5.569-2.75,8.08-4.602
	c12.006,7.833,26.121,12.073,40.568,12.073c34.596,0,63.949-23.764,72.058-56.184c0.227,0.065,0.458,0.12,0.686,0.182
	c0.26,0.07,0.52,0.141,0.782,0.207c0.589,0.148,1.182,0.286,1.777,0.411c0.418,0.089,0.84,0.166,1.261,0.244
	c0.264,0.048,0.527,0.097,0.791,0.142c0.473,0.08,0.947,0.154,1.424,0.221c0.046,0.006,0.091,0.011,0.137,0.017
	c2.225,0.304,4.492,0.475,6.799,0.475s4.574-0.171,6.799-0.475c0.046-0.006,0.091-0.011,0.137-0.017
	c0.477-0.067,0.951-0.141,1.424-0.221c0.265-0.044,0.528-0.093,0.791-0.142c0.422-0.078,0.844-0.155,1.261-0.244
	c0.595-0.126,1.188-0.264,1.777-0.411c0.262-0.066,0.521-0.137,0.782-0.207c0.228-0.061,0.458-0.117,0.686-0.182
	c8.108,32.42,37.462,56.184,72.058,56.184c14.447,0,28.563-4.24,40.568-12.073c2.511,1.852,5.225,3.389,8.08,4.602
	c0.067,0.029,0.135,0.056,0.202,0.085c0.494,0.207,0.992,0.404,1.495,0.591c0.128,0.048,0.256,0.095,0.385,0.142
	c0.449,0.162,0.901,0.314,1.356,0.46c0.165,0.053,0.328,0.107,0.494,0.158c0.116,0.035,0.229,0.076,0.346,0.11L302.457,262.083z
	 M340,152.083c-0.644,0-1.279-0.037-1.907-0.097c-0.065-0.006-0.131-0.009-0.196-0.016c-0.591-0.062-1.173-0.155-1.747-0.267
	c-0.097-0.019-0.194-0.036-0.29-0.057c-0.561-0.118-1.112-0.262-1.654-0.426c-0.095-0.029-0.191-0.058-0.285-0.089
	c-0.551-0.176-1.093-0.373-1.623-0.595c-0.062-0.026-0.122-0.053-0.183-0.08c-1.744-0.752-3.363-1.74-4.81-2.932
	c-0.01-0.009-0.021-0.017-0.031-0.026c-0.482-0.399-0.945-0.82-1.387-1.261c-0.015-0.016-0.031-0.031-0.046-0.047
	c-3.606-3.619-5.839-8.607-5.839-14.108c0-11.028,8.972-20,20-20s20,8.972,20,20S351.028,152.083,340,152.083z"/>
<g>
</g>
<g>
</g>
<g>
</g>
<g>
</g>
<g>
</g>
<g>
</g>
<g>
</g>
<g>
</g>
<g>
</g>
<g>
</g>
<g>
</g>
<g>
</g>
<g>
</g>
<g>
</g>
<g>
</g>
</svg>
